<svg width="428" height="104" viewBox="0 0 428 104" fill="none" xmlns="http://www.w3.org/2000/svg">
<path d="M121.046 91.5526H114.286L105.15 82.4133L134.818 52.7334L102.318 20.2203L121.046 15.5364V23.0534H132.465V0.890625L67.4203 17.1586L2.37524 0.890625V23.0534H13.7947V15.5364L56.2521 26.1608L29.6677 52.7334L48.5326 71.606L56.6175 63.5177L45.8147 52.7105L70.3437 28.2172L88.3635 23.716L59.3353 52.7334L89.003 82.4133L79.8675 91.5526H54.9503L16.1471 52.7334L26.9498 41.9261L18.8649 33.8378L0 52.7334L38.8032 91.5526H13.7947V82.4133H2.37524V102.977H84.6408L97.1108 90.5015L109.581 102.977H132.465V82.4133H121.046V91.5526ZM75.5052 52.7334L97.1108 31.1189L118.716 52.7334L97.1108 74.3478L75.5052 52.7334Z" fill="#04031F"/>
<path d="M196.963 11.2409H166.953V33.9292H193.629V44.2795H166.953V67.9732H196.963V78.3234H154.277V0.890625H196.963V11.2409Z" fill="#04031F"/>
<path d="M225.191 43.7112V78.3035H212.516V1.00781H225.191V36.2627L255.224 1.00781H271.12L237.547 39.7128L271.668 78.3035H255.11L225.191 43.7112Z" fill="#04031F"/>
<path d="M295.582 43.7112V78.3035H282.906V1.00781H295.582V36.2627L325.592 1.00781H341.488L307.915 39.7128L342.036 78.3035H325.478L295.582 43.7112Z" fill="#04031F"/>
<path d="M388.512 79.0779C366.724 79.0779 349.047 62.7185 349.047 39.4818C349.047 16.3594 366.724 0 388.512 0C410.529 0 427.978 16.3594 427.978 39.4818C428.001 62.7414 410.529 79.0779 388.512 79.0779ZM388.512 68.065C403.86 68.065 414.983 56.9379 414.983 39.4818C414.983 22.0257 403.86 11.1271 388.512 11.1271C373.165 11.1271 362.042 22.0257 362.042 39.4818C362.042 56.9379 373.188 68.065 388.512 68.065Z" fill="#04031F"/>
<path d="M154.277 88.6992H156.493L159.142 100.238L161.997 88.6992H164.349L166.999 100.192L169.648 88.6992H171.886L168.118 102.865H165.742L163.07 92.1265L160.238 102.865L157.886 102.888L154.277 88.6992Z" fill="#04031F"/>
<path d="M197.874 90.5722H192.918V94.7306H197.326V96.627H192.918V100.968H197.874V102.865H190.84V88.6758H197.874V90.5722V90.5722Z" fill="#04031F"/>
<path d="M222.769 102.865H217.676V88.6992H222.54C225.235 88.6992 226.674 90.3443 226.674 92.3549C226.674 94.0686 225.738 95.1196 224.505 95.5994C225.852 95.8736 226.971 97.3816 226.971 99.0723C226.948 101.22 225.372 102.865 222.769 102.865ZM222.358 90.5956H219.777V94.6626H222.358C223.705 94.6626 224.55 93.9543 224.55 92.652C224.527 91.3496 223.705 90.5956 222.358 90.5956ZM222.518 96.559H219.777V100.992H222.609C224.025 100.992 224.893 100.192 224.893 98.821C224.87 97.4044 223.911 96.559 222.518 96.559Z" fill="#04031F"/>
<path d="M276.146 99.9863H270.801L269.888 102.888H267.695L272.263 88.6992H274.684L279.252 102.888H277.059L276.146 99.9863ZM273.474 91.4867L271.395 98.067H275.552L273.474 91.4867Z" fill="#04031F"/>
<path d="M310.198 92.7648H307.685C307 91.3482 305.79 90.6171 304.283 90.6171C301.747 90.6171 299.92 92.6049 299.92 95.7351C299.92 98.8653 301.747 100.876 304.283 100.876C306.589 100.876 308.051 99.3223 308.348 96.946H303.574V95.0953H310.586V96.9004C310.198 100.191 307.708 102.978 304.283 102.978C300.697 102.978 297.773 100.008 297.773 95.7351C297.773 91.4853 300.697 88.4922 304.283 88.4922C306.932 88.515 309.216 90.0002 310.198 92.7648Z" fill="#04031F"/>
<path d="M336.898 90.5722H331.942V94.7306H336.349V96.627H331.942V100.968H336.898V102.865H329.863V88.6758H336.898V90.5722Z" fill="#04031F"/>
<path d="M367.16 88.6758V102.865H365.082L358.801 92.2858V102.865H356.723V88.6758H358.801L365.082 99.2317V88.6758H367.16Z" fill="#04031F"/>
<path d="M392.966 88.5156C395.615 88.5156 397.922 90.0008 398.881 92.7882H396.369C395.684 91.2803 394.473 90.572 392.966 90.572C390.431 90.572 388.604 92.5598 388.604 95.7814C388.604 98.9801 390.431 101.014 392.966 101.014C394.496 101.014 395.707 100.305 396.369 98.7973H398.881C397.899 101.562 395.615 103.047 392.966 103.047C389.38 103.047 386.457 100.077 386.457 95.8042C386.457 91.5087 389.358 88.5156 392.966 88.5156Z" fill="#04031F"/>
<path d="M417.449 88.6992H419.779L422.725 95.6451L425.671 88.6992H427.978L423.753 97.7471V102.888H421.674V97.7471L417.449 88.6992Z" fill="#04031F"/>
</svg>
